<svg xmlns="http://www.w3.org/2000/svg" x="0px" y="0px"
width="64" height="64"
viewBox="0 0 172 172"
style=" fill:#000000;"><defs><linearGradient x1="79.28125" y1="51.07863" x2="79.28125" y2="123.625" gradientUnits="userSpaceOnUse" id="color-1_114954_gr1"><stop offset="0" stop-color="#ffffff"></stop><stop offset="1" stop-color="#ffffff"></stop></linearGradient><linearGradient x1="79.28125" y1="15.67619" x2="79.28125" y2="156.57913" gradientUnits="userSpaceOnUse" id="color-2_114954_gr2"><stop offset="0" stop-color="#ffffff"></stop><stop offset="1" stop-color="#ffffff"></stop></linearGradient><linearGradient x1="86" y1="15.67619" x2="86" y2="156.57913" gradientUnits="userSpaceOnUse" id="color-3_114954_gr3"><stop offset="0" stop-color="#ffffff"></stop><stop offset="1" stop-color="#ffffff"></stop></linearGradient></defs><g fill="none" fill-rule="nonzero" stroke="none" stroke-width="1" stroke-linecap="butt" stroke-linejoin="miter" stroke-miterlimit="10" stroke-dasharray="" stroke-dashoffset="0" font-family="none" font-weight="none" font-size="none" text-anchor="none" style="mix-blend-mode: normal"><path d="M0,172v-172h172v172z" fill="none"></path><g id="original-icon"><path d="M59.14381,94.73438l45.72781,-27.54687l-32.27956,33.59375l28.31281,22.23906c5.07131,2.23062 6.91762,-2.41606 6.91762,-2.41606l12.96719,-65.84644c0,0 0.22038,-1.67969 0.12094,-2.01562c-0.9245,-3.139 -5.98775,-0.87344 -5.98506,-0.87075l-74.05944,29.25881c0,0 -3.5045,1.20669 -3.22769,3.43462c0.27681,2.23063 3.13631,3.24919 3.13631,3.24919l18.37444,6.92031" fill="url(#color-1_114954_gr1)"></path><path d="M123.48794,51.98431c-0.61812,-2.107 -2.30856,-3.41044 -4.64131,-3.57438c-0.47031,-0.03494 -3.11481,0.07256 -4.89931,0.98094l-0.00806,-0.01881l-73.94656,29.2185c-2.37844,0.817 -5.00144,2.74931 -5.05519,5.60881c-0.00538,0.22575 0.00806,0.45956 0.03762,0.69875c0.46494,3.7625 4.44512,5.289 4.85631,5.43144l17.13819,6.45538c1.31687,4.23281 5.66525,18.20512 6.6005,21.19363c0.62888,1.9995 1.66625,4.59294 3.56631,5.30244c0.54825,0.22575 1.13144,0.344 1.73881,0.344c1.65013,0 2.72513,-0.8385 3.12556,-1.20131l10.48931,-10.45438l16.75656,13.16069c0.17469,0.13975 0.37087,0.258 0.57781,0.34669c1.38944,0.61275 2.623,0.83313 3.67381,0.83313c1.09919,0 2.00219,-0.23919 2.68212,-0.51869c2.86756,-1.17713 4.01512,-3.88881 4.13875,-4.19519c0.05912,-0.15319 0.1075,-0.31175 0.13975,-0.473l12.99406,-66.01575c0.29831,-2.24675 0.13706,-2.77619 0.03494,-3.12287zM62.33656,95.94644l26.531,-15.98256l-18.20781,18.95494c-0.3225,0.33325 -0.50525,0.74981 -0.61544,1.18788c-0.00806,0.03225 -2.70363,11.90563 -2.70363,11.90563zM118.15056,54.25525l-12.89731,65.49437c-0.15319,0.26337 -0.5375,0.83581 -1.10994,1.06963c-0.48106,0.19619 -1.10725,0.14781 -1.86513,-0.14244l-25.68981,-20.17506l30.22094,-31.4545c0.93525,-0.97019 1.00513,-2.48594 0.16394,-3.53675c-0.8385,-1.05081 -2.33006,-1.31956 -3.48569,-0.6235l-44.61519,26.875l-17.17044,-6.46612c-0.52675,-0.20156 -1.06963,-0.59394 -1.29269,-0.86806c0.29294,-0.258 0.88419,-0.59394 1.44319,-0.7955l74.06212,-29.26419c0.04569,-0.01612 0.08869,-0.03762 0.13437,-0.05644c0.67456,-0.29562 1.58563,-0.516 2.15806,-0.55094c-0.02687,0.26875 -0.05644,0.49181 -0.05644,0.4945z" fill="url(#color-2_114954_gr2)"></path><path d="M86,155.875c-38.53069,0 -69.875,-31.347 -69.875,-69.875c0,-38.528 31.34431,-69.875 69.875,-69.875c38.53069,0 69.875,31.347 69.875,69.875c0,38.528 -31.34431,69.875 -69.875,69.875zM86,21.5c-35.56369,0 -64.5,28.93631 -64.5,64.5c0,35.56369 28.93631,64.5 64.5,64.5c35.56369,0 64.5,-28.93631 64.5,-64.5c0,-35.56369 -28.93631,-64.5 -64.5,-64.5z" fill="url(#color-3_114954_gr3)"></path></g></g></svg>