<svg xmlns="http://www.w3.org/2000/svg" x="0px" y="0px"
width="64" height="64"
viewBox="0 0 172 172"
style=" fill:#000000;"><defs><linearGradient x1="86" y1="16.125" x2="86" y2="155.875" gradientUnits="userSpaceOnUse" id="color-1_IXUU4h36YfmO_gr1"><stop offset="0" stop-color="#ffffff"></stop><stop offset="1" stop-color="#ffffff"></stop></linearGradient><linearGradient x1="58.91538" y1="69.531" x2="59.34269" y2="119.49163" gradientUnits="userSpaceOnUse" id="color-2_IXUU4h36YfmO_gr2"><stop offset="0" stop-color="#ffffff"></stop><stop offset="1" stop-color="#ffffff"></stop></linearGradient><linearGradient x1="60.39888" y1="48.28363" x2="60.54131" y2="64.88969" gradientUnits="userSpaceOnUse" id="color-3_IXUU4h36YfmO_gr3"><stop offset="0" stop-color="#ffffff"></stop><stop offset="1" stop-color="#ffffff"></stop></linearGradient><linearGradient x1="102.33194" y1="69.82931" x2="101.91538" y2="118.45425" gradientUnits="userSpaceOnUse" id="color-4_IXUU4h36YfmO_gr4"><stop offset="0" stop-color="#ffffff"></stop><stop offset="1" stop-color="#ffffff"></stop></linearGradient></defs><g fill="none" fill-rule="nonzero" stroke="none" stroke-width="1" stroke-linecap="butt" stroke-linejoin="miter" stroke-miterlimit="10" stroke-dasharray="" stroke-dashoffset="0" font-family="none" font-weight="none" font-size="none" text-anchor="none" style="mix-blend-mode: normal"><path d="M0,172v-172h172v172z" fill="none"></path><g><path d="M86,155.875c-38.528,0 -69.875,-31.34431 -69.875,-69.875c0,-38.528 31.347,-69.875 69.875,-69.875c38.528,0 69.875,31.347 69.875,69.875c0,38.53069 -31.347,69.875 -69.875,69.875zM86,21.5c-35.56369,0 -64.5,28.93631 -64.5,64.5c0,35.56369 28.93631,64.5 64.5,64.5c35.56369,0 64.5,-28.93631 64.5,-64.5c0,-35.56369 -28.93631,-64.5 -64.5,-64.5z" fill="url(#color-1_IXUU4h36YfmO_gr1)"></path><rect x="19" y="26" transform="scale(2.6875,2.6875)" width="6" height="18" fill="url(#color-2_IXUU4h36YfmO_gr2)"></rect><ellipse cx="22.5" cy="21" transform="scale(2.6875,2.6875)" rx="3.5" ry="3" fill="url(#color-3_IXUU4h36YfmO_gr3)"></ellipse><g fill="url(#color-4_IXUU4h36YfmO_gr4)"><path d="M107.5,69.875h-1.42169h-0.00269c-5.87756,0 -10.75,4.22475 -11.79006,9.80131h-0.22306v-9.80131h-16.125v48.375h16.125v-23.08025v-4.10919c0.01881,-1.01856 0.09944,-1.95919 0.22575,-2.84875c0.82775,-3.57437 4.01244,-6.24306 7.83675,-6.24306c4.45319,0 8.0625,3.60931 8.0625,8.0625v1.50231v3.1605v23.55594h16.125v-24.50463v-2.21181v-2.84606c0,-10.38988 -8.42262,-18.8125 -18.8125,-18.8125z"></path></g></g></g></svg>